<svg width="600" height="160" viewBox="0 0 600 160" fill="none" xmlns="http://www.w3.org/2000/svg">
<g clip-path="url(#clip0_4047_17396)">
<path d="M152.394 0C350.034 0 510.253 160.249 510.253 357.926V488.124H600V590.289H510.253V722.721H599.986V824.885H503.312C493.648 873.264 474.234 918.126 447.223 957.321H599.991V1059.49H405.745V1206.81H364.575C348.574 1206.81 331.676 1202.21 316.627 1196.73C300.842 1190.98 283.729 1183.01 266.309 1173.69C235.582 1157.26 202.028 1135.64 170.304 1111.9C165.808 1112.12 161.288 1112.27 156.745 1112.32L152.394 1112.35H-78.7891C-162.293 1112.35 -239.117 1083.74 -300 1035.79C-275.684 1018.81 -255.294 999.157 -238.703 978.854C-193.614 1011.05 -138.413 1029.99 -78.7891 1029.99H81.6963V957.321H338.824C377.011 922.2 405.226 876.509 418.832 824.885H195.188V722.721H427.913V590.289H297.346V488.124H427.913V357.926C427.913 205.732 304.559 82.3545 152.394 82.3545H-78.7891C-80.6242 82.3545 -82.4556 82.3725 -84.2822 82.4082C-92.887 54.1591 -104.689 27.304 -119.267 2.26465C-105.981 0.768725 -92.4745 2.91409e-07 -78.7891 0H152.394ZM238.276 1059.49C261.133 1075.54 284.178 1089.86 305.135 1101.07C311.544 1104.49 317.656 1107.56 323.406 1110.28V1059.49H238.276Z" fill="#B2BFCC"/>
</g>
<defs>
<clipPath id="clip0_4047_17396">
<rect width="600" height="160" fill="white"/>
</clipPath>
</defs>
</svg>
