<svg width="600" height="120" viewBox="0 0 600 120" fill="none" xmlns="http://www.w3.org/2000/svg">
<g clip-path="url(#clip0_4047_17392)">
<path d="M649.853 -1080C822.037 -1080 965.791 -958.302 999.808 -796.229C1049.78 -628.555 1107.01 -329.468 1107.16 -328.711H931.799V-235.874H766.757C766.757 -179.141 823.873 -101.245 899.161 -101.245C899.161 -39.354 812.143 120 622.346 120H357.591C160.099 120 0.00016855 -40.0997 0 -237.593V-722.407C0.000165207 -919.9 160.099 -1080 357.591 -1080H649.853ZM763.319 -681.142C725.34 -681.142 694.552 -650.353 694.552 -612.374C694.552 -574.395 725.34 -543.606 763.319 -543.606C801.298 -543.607 832.087 -574.395 832.087 -612.374C832.087 -650.353 801.298 -681.141 763.319 -681.142Z" fill="#36C99F"/>
</g>
<defs>
<clipPath id="clip0_4047_17392">
<rect width="600" height="120" fill="white"/>
</clipPath>
</defs>
</svg>
