<svg width="57" height="56" viewBox="0 0 57 56" fill="none" xmlns="http://www.w3.org/2000/svg">
<path d="M23.5828 34.667C24.0099 35.0957 25.1239 36.3132 25.5795 36.515C25.7233 36.5787 25.8929 36.5817 26.048 36.5812C26.2057 36.5808 26.3821 36.5739 26.5231 36.4972C27.0079 36.2339 27.7927 35.3551 28.2041 34.9431L30.3762 32.7724C30.4309 32.718 30.614 32.5125 30.6924 32.5407L37.0496 43.2061L38.6465 45.8754C38.9104 46.3156 39.2322 46.7656 39.4315 47.2369C39.5442 47.5035 39.5543 47.8853 39.4843 48.1636C39.4154 48.4373 39.2651 48.6433 39.0203 48.7873C38.8832 48.868 38.7241 48.9158 38.592 48.9997H8.46208C8.3879 48.9485 8.29288 48.9177 8.21244 48.8754C7.8795 48.7 7.68895 48.4849 7.55469 48.1358C7.56615 48.1139 7.57906 48.0915 7.58109 48.0661C7.58755 47.9853 7.56678 47.883 7.56767 47.7982C7.56932 47.6407 7.59435 47.4885 7.58475 47.3312C7.76236 46.8233 8.22122 46.1874 8.51324 45.7167C8.8868 45.1146 9.24484 44.5015 9.60943 43.8939L14.2705 36.154L15.7919 33.6163C16.0016 33.2625 16.2312 32.9217 16.4222 32.5575C16.435 32.5332 16.4314 32.541 16.4561 32.5183C16.6439 32.5841 16.9789 32.9838 17.1356 33.141L19.1837 35.1932C19.5346 35.5444 19.8768 35.9288 20.2546 36.2496C20.387 36.362 20.5436 36.4705 20.7036 36.5393C20.9074 36.627 21.3842 36.5962 21.5825 36.5022C22.2024 36.2081 22.9906 35.1326 23.5828 34.667Z" fill="#667F99"/>
<path d="M23.2992 7H36.131C36.2467 7.04657 36.3651 7.09955 36.4745 7.15933C36.7234 7.2954 36.9408 7.51631 37.017 7.7956C37.0867 8.0505 37.0896 8.41929 37.0158 8.67401C36.9409 8.93272 36.7988 9.17773 36.6777 9.41723L36.2005 10.3661L35.3284 12.1121C35.1554 12.4571 34.9904 12.8103 34.7957 13.1437C34.9454 13.5158 35.1584 13.8823 35.3379 14.2418L36.4516 16.4658C36.6251 16.812 36.8295 17.1657 36.965 17.5277C37.0186 17.671 37.0594 17.8241 37.0636 17.9775C37.0739 18.3523 37.0339 18.6583 36.7597 18.9386C36.6235 19.0779 36.4399 19.2053 36.2464 19.2382C35.8046 19.3134 35.3244 19.2798 34.8765 19.28L32.7754 19.2803L24.7907 19.2841C24.7452 19.9797 24.7721 20.6886 24.7704 21.3858C24.7695 21.7633 24.7303 22.1692 24.7604 22.543C24.7642 22.5894 24.7756 22.6298 24.7946 22.6722C24.7995 22.6834 24.805 22.6942 24.8101 22.7052C24.9348 22.9739 25.1044 23.2264 25.2568 23.4803L26.0107 24.7376L28.4628 28.8246C28.6302 29.1028 29.2748 30.0796 29.3176 30.33C29.1899 30.5405 28.958 30.7287 28.7834 30.9037L27.9068 31.7813L26.7363 32.9516C26.5129 33.1747 26.2942 33.4145 26.0534 33.6185C25.897 33.5196 25.7656 33.3672 25.6354 33.2365L24.9959 32.5941C24.6713 32.2675 24.2756 31.7837 23.786 31.7347C23.608 31.717 23.3624 31.7109 23.1931 31.7688C22.6001 31.9717 21.6958 33.1418 21.1525 33.6004L21.1312 33.6182C20.8624 33.4486 20.4229 32.944 20.1799 32.7004C19.3927 31.9112 18.6192 31.0889 17.7988 30.3346C17.7933 30.221 20.9845 24.9639 21.3116 24.4195C21.5226 24.0683 22.3348 22.8298 22.3715 22.5278C22.4037 22.2641 22.3725 21.9687 22.3704 21.7012L22.3705 20.1174L22.3708 12.1366L22.3704 9.53012C22.3704 9.0419 22.3549 8.5471 22.3801 8.05958C22.3875 7.91757 22.4038 7.77589 22.4703 7.64783C22.637 7.3263 22.9625 7.10865 23.2992 7Z" fill="#36C99F"/>
<path d="M41.8135 48.9999C41.8375 48.751 41.9087 48.5141 41.9543 48.2691C42.0275 47.8762 42.0315 47.3683 41.9358 46.9809C41.7257 46.1313 41.1659 45.306 40.7185 44.5563L39.5562 42.618L36.2268 37.0196L35.2408 35.3698C35.0532 35.059 34.8519 34.7513 34.6777 34.433C34.6428 34.3694 34.603 34.2971 34.6035 34.2223C34.6041 34.1339 34.6494 34.0432 34.6908 33.9676C34.7772 33.8098 34.8909 33.6666 34.9809 33.5111C35.3532 32.8686 35.7372 32.2331 36.1193 31.5961L36.894 30.3042C37.0508 30.043 37.2168 29.6853 37.4335 29.474C37.648 29.2649 38.0463 29.1309 38.3425 29.1321C38.6286 29.1332 38.9793 29.2414 39.186 29.4434C39.1819 29.4881 39.1748 29.4861 39.2008 29.5259C39.2881 29.6597 39.3543 29.8124 39.4321 29.9522C39.6456 30.3354 39.8614 30.7211 40.0973 31.0906C40.1173 31.1218 40.1161 31.1501 40.1209 31.1858C40.1441 31.3562 40.3271 31.4427 40.3915 31.6381C40.4559 31.8335 40.5943 31.9797 40.6952 32.1558L41.3142 33.2487C41.3696 33.3478 41.4088 33.458 41.4652 33.5546C41.543 33.6879 41.6498 33.8045 41.7247 33.9401C41.7578 33.9999 41.7557 34.0678 41.7841 34.1272C41.8262 34.2153 41.9177 34.3076 41.9695 34.3974C42.0268 34.4966 42.0653 34.6044 42.122 34.703C42.1707 34.7874 42.2319 34.8646 42.2836 34.9472C42.4272 35.1764 42.5619 35.4276 42.6922 35.6656C42.7971 35.8571 42.8396 36.0314 42.9921 36.1955C43.0872 36.2978 43.093 36.4339 43.1628 36.5488C43.2349 36.6675 43.3207 36.7776 43.392 36.8969C43.4537 37.0003 43.4978 37.1136 43.5586 37.2178C43.9497 37.8879 44.3543 38.5604 44.7226 39.2432C44.7674 39.3262 44.8002 39.4155 44.8456 39.4979C44.9078 39.6107 45.0049 39.7023 45.0694 39.8139C45.1424 39.9402 45.1689 40.0923 45.2416 40.2192C45.3057 40.3311 45.3981 40.4261 45.4641 40.537C45.6191 40.798 45.7457 41.0836 45.8953 41.3475C45.9722 41.4831 46.0841 41.6015 46.1582 41.7396C46.1766 41.7738 46.1819 41.8108 46.1895 41.8483C46.2208 42.0049 46.4022 42.1578 46.4812 42.3021C46.5149 42.3639 46.5115 42.4349 46.5415 42.4959C46.5993 42.613 46.7062 42.7246 46.7729 42.8439L47.4191 43.9828C47.4712 44.0764 47.5069 44.1793 47.5611 44.2715C47.6262 44.3822 47.7221 44.4713 47.7837 44.5851C47.8527 44.7125 47.8818 44.8612 47.9557 44.9861C48.0195 45.0939 48.1079 45.1864 48.1708 45.2948C48.2168 45.3743 48.2484 45.4618 48.293 45.5424L48.9725 46.7463C49.0479 46.879 49.1735 47.0107 49.2327 47.1468C49.2877 47.2731 49.2591 47.4238 49.3098 47.5524L49.3765 47.5391C49.4226 47.5837 49.4258 47.6758 49.4266 47.737C49.4299 47.9819 49.261 48.2966 49.1199 48.4935C49.0465 48.5961 48.9536 48.6852 48.9204 48.8103C48.7949 48.8721 48.6413 48.9208 48.5278 48.9999H41.8135Z" fill="#667F99"/>
<path d="M39.1858 29.4438C39.2611 29.505 39.3261 29.5712 39.3776 29.6539C39.6986 30.1706 39.9841 30.7161 40.2824 31.2465L41.6255 33.6055L46.0087 41.3125L48.2814 45.3062L48.8327 46.2767C49.0764 46.6982 49.3355 47.116 49.4997 47.577V48.0114C49.3357 48.3345 49.2509 48.611 48.9202 48.8107C48.9533 48.6856 49.0463 48.5966 49.1197 48.494C49.2607 48.297 49.4297 47.9824 49.4263 47.7375C49.4255 47.6763 49.4223 47.5842 49.3763 47.5396L49.3095 47.5528C49.2589 47.4243 49.2874 47.2736 49.2325 47.1473C49.1732 47.0112 49.0477 46.8794 48.9723 46.7467L48.2927 45.5428C48.2481 45.4623 48.2165 45.3747 48.1705 45.2953C48.1077 45.1868 48.0192 45.0944 47.9554 44.9866C47.8815 44.8616 47.8525 44.713 47.7835 44.5855C47.7219 44.4717 47.626 44.3827 47.5608 44.2719C47.5066 44.1797 47.4709 44.0768 47.4188 43.9832L46.7727 42.8444C46.7059 42.7251 46.599 42.6134 46.5413 42.4963C46.5112 42.4354 46.5146 42.3644 46.4809 42.3026C46.4019 42.1582 46.2205 42.0053 46.1892 41.8488C46.1816 41.8112 46.1763 41.7742 46.1579 41.74C46.0839 41.602 45.9719 41.4836 45.895 41.3479C45.7455 41.0841 45.6188 40.7985 45.4638 40.5374C45.3978 40.4265 45.3054 40.3315 45.2413 40.2197C45.1686 40.0927 45.1421 39.9407 45.0691 39.8143C45.0047 39.7028 44.9075 39.6111 44.8454 39.4983C44.7999 39.4159 44.7671 39.3267 44.7223 39.2436C44.3541 38.5609 43.9494 37.8884 43.5584 37.2183C43.4975 37.114 43.4534 37.0007 43.3918 36.8974C43.3205 36.778 43.2347 36.6679 43.1626 36.5492C43.0928 36.4343 43.0869 36.2982 42.9919 36.1959C42.8394 36.0319 42.7968 35.8576 42.692 35.6661C42.5616 35.428 42.4269 35.1769 42.2834 34.9477C42.2316 34.8651 42.1704 34.7879 42.1218 34.7035C42.0651 34.6049 42.0265 34.4971 41.9693 34.3978C41.9174 34.3081 41.8259 34.2158 41.7839 34.1277C41.7554 34.0683 41.7575 34.0004 41.7245 33.9406C41.6495 33.805 41.5428 33.6884 41.4649 33.555C41.4086 33.4585 41.3694 33.3483 41.3139 33.2492L40.695 32.1563C40.5941 31.9802 40.4556 31.8339 40.3912 31.6385C40.3268 31.4432 40.1438 31.3567 40.1207 31.1863C40.1158 31.1506 40.117 31.1223 40.0971 31.091C39.8611 30.7216 39.6453 30.3359 39.4319 29.9527C39.354 29.8128 39.2878 29.6602 39.2005 29.5264C39.1745 29.4865 39.1816 29.4886 39.1858 29.4438Z" fill="#667F99"/>
<path d="M7.5 47.5122C7.53793 47.4568 7.56006 47.3936 7.58574 47.3318C7.59533 47.4891 7.5703 47.6413 7.56865 47.7988C7.56776 47.8836 7.58853 47.9859 7.58207 48.0667C7.58004 48.0921 7.56713 48.1144 7.55567 48.1363L7.5 48.0395V47.5122Z" fill="#667F99"/>
</svg>
