<svg width="144" height="24" viewBox="0 0 144 24" fill="none" xmlns="http://www.w3.org/2000/svg">
<path d="M19.9341 9.93199L19.0346 14.1297H22.4963V17.5369H18.2986L17.3174 22.1707H13.6921L14.6734 17.5369H9.71247L8.73119 22.1707H5.13317L6.11445 17.5369H1.99854V14.1297H6.85041L7.74991 9.93199H3.66126V6.52478H8.48587L9.43989 2H13.0379L12.0839 6.52478H17.0448L17.9988 2H21.6241L20.6701 6.52478H24.1591V9.93199H19.9341ZM16.3088 9.93199H11.3479L10.4484 14.1297H15.4093L16.3088 9.93199Z" fill="white"/>
<path d="M38.8237 18.9543H47.3826V22.1707H34.408V19.2269L42.9124 6.36123H34.408V3.14482H47.3826V6.08866L38.8237 18.9543Z" fill="white"/>
<path d="M60.0076 22.3615C58.2268 22.3615 56.5913 21.9436 55.1012 21.1077C53.6111 20.2717 52.43 19.1178 51.5577 17.6459C50.6855 16.1558 50.2494 14.4749 50.2494 12.6032C50.2494 10.7497 50.6855 9.087 51.5577 7.61509C52.43 6.125 53.6111 4.962 55.1012 4.1261C56.5913 3.2902 58.2268 2.87225 60.0076 2.87225C61.8066 2.87225 63.4421 3.2902 64.914 4.1261C66.4041 4.962 67.5762 6.125 68.4303 7.61509C69.3025 9.087 69.7386 10.7497 69.7386 12.6032C69.7386 14.4749 69.3025 16.1558 68.4303 17.6459C67.5762 19.1178 66.4041 20.2717 64.914 21.1077C63.4239 21.9436 61.7885 22.3615 60.0076 22.3615ZM60.0076 18.9543C61.1525 18.9543 62.161 18.6999 63.0332 18.1911C63.9055 17.6641 64.5869 16.9191 65.0776 15.9559C65.5682 14.9928 65.8135 13.8753 65.8135 12.6032C65.8135 11.3312 65.5682 10.2227 65.0776 9.27781C64.5869 8.3147 63.9055 7.57874 63.0332 7.06993C62.161 6.56112 61.1525 6.30672 60.0076 6.30672C58.8628 6.30672 57.8452 6.56112 56.9548 7.06993C56.0825 7.57874 55.4011 8.3147 54.9104 9.27781C54.4198 10.2227 54.1745 11.3312 54.1745 12.6032C54.1745 13.8753 54.4198 14.9928 54.9104 15.9559C55.4011 16.9191 56.0825 17.6641 56.9548 18.1911C57.8452 18.6999 58.8628 18.9543 60.0076 18.9543Z" fill="white"/>
<path d="M83.9169 12.4124C84.989 12.6123 85.8704 13.1484 86.5609 14.0206C87.2514 14.8929 87.5967 15.8923 87.5967 17.019C87.5967 18.0366 87.3423 18.9361 86.8335 19.7175C86.3428 20.4807 85.625 21.0804 84.6801 21.5165C83.7352 21.9526 82.6176 22.1707 81.3274 22.1707H73.1228V3.14482H80.9731C82.2633 3.14482 83.3717 3.3538 84.2985 3.77175C85.2434 4.1897 85.9521 4.7712 86.4246 5.51624C86.9152 6.26129 87.1606 7.10628 87.1606 8.05121C87.1606 9.15969 86.8607 10.0865 86.261 10.8315C85.6796 11.5765 84.8982 12.1035 83.9169 12.4124ZM76.9389 10.995H80.4279C81.3365 10.995 82.0361 10.7952 82.5267 10.3954C83.0174 9.97742 83.2627 9.38684 83.2627 8.62362C83.2627 7.86041 83.0174 7.26982 82.5267 6.85187C82.0361 6.43392 81.3365 6.22494 80.4279 6.22494H76.9389V10.995ZM80.7822 19.0633C81.709 19.0633 82.4268 18.8453 82.9356 18.4091C83.4626 17.973 83.7261 17.3552 83.7261 16.5556C83.7261 15.7379 83.4535 15.1019 82.9084 14.6476C82.3632 14.1751 81.6272 13.9389 80.7005 13.9389H76.9389V19.0633H80.7822Z" fill="white"/>
<path d="M102.85 18.5454H95.2719L94.018 22.1707H90.0111L96.8528 3.11756H101.296L108.138 22.1707H104.103L102.85 18.5454ZM101.814 15.4926L99.0607 7.53331L96.3077 15.4926H101.814Z" fill="white"/>
<path d="M122.906 18.5454H115.329L114.075 22.1707H110.068L116.91 3.11756H121.353L128.194 22.1707H124.16L122.906 18.5454ZM121.87 15.4926L119.117 7.53331L116.364 15.4926H121.87Z" fill="white"/>
<path d="M142.931 3.82191L139.102 16.4259L135.995 15.5934L138.955 2.75663L142.931 3.82191ZM135.977 22.1918C135.31 22.0131 134.811 21.6631 134.48 21.1418C134.172 20.6076 134.1 20.0334 134.265 19.4191C134.429 18.8047 134.776 18.3521 135.306 18.0613C135.858 17.7576 136.467 17.6951 137.134 17.8739C137.783 18.0479 138.262 18.402 138.571 18.9361C138.884 19.4527 138.958 20.0181 138.793 20.6325C138.629 21.2468 138.279 21.7082 137.745 22.0166C137.216 22.3074 136.626 22.3658 135.977 22.1918Z" fill="white"/>
</svg>
