<svg width="12" height="13" viewBox="0 0 12 13" fill="none" xmlns="http://www.w3.org/2000/svg">
<path fill-rule="evenodd" clip-rule="evenodd" d="M5.99992 9.53617L2.73742 11.2177C2.71272 11.2304 2.68497 11.236 2.65727 11.2339C2.62957 11.2318 2.60301 11.222 2.58053 11.2057C2.55806 11.1893 2.54056 11.1671 2.52999 11.1414C2.51942 11.1157 2.51619 11.0876 2.52067 11.0602L3.11316 7.43767L0.504665 4.85617C0.484537 4.83686 0.470256 4.81226 0.463459 4.78521C0.456663 4.75815 0.457624 4.72973 0.466234 4.70319C0.474844 4.67666 0.490755 4.65308 0.512143 4.63517C0.53353 4.61726 0.559531 4.60574 0.587165 4.60192L4.21491 4.04467L5.86491 0.767172C5.87736 0.742211 5.89651 0.721213 5.92022 0.706535C5.94394 0.691857 5.97128 0.684082 5.99917 0.684082C6.02705 0.684082 6.05439 0.691857 6.07811 0.706535C6.10182 0.721213 6.12098 0.742211 6.13342 0.767172L7.78341 4.04467L11.4112 4.60192C11.4386 4.60601 11.4644 4.61767 11.4856 4.63562C11.5068 4.65356 11.5226 4.67707 11.5312 4.70349C11.5398 4.72991 11.5408 4.7582 11.5342 4.78517C11.5275 4.81215 11.5135 4.83673 11.4937 4.85617L8.88741 7.43842L9.47841 11.0609C9.48273 11.0883 9.47938 11.1163 9.46874 11.1419C9.4581 11.1675 9.44059 11.1896 9.41814 11.2058C9.3957 11.222 9.3692 11.2317 9.34158 11.2338C9.31396 11.2359 9.2863 11.2303 9.26166 11.2177L5.99992 9.53617Z" fill="#F6BD2B"/>
</svg>
